<svg xmlns="http://www.w3.org/2000/svg" width="1440" height="560" viewBox="0 0 1440 560">
  <defs><linearGradient id="abg" x1="0" y1="0" x2="1" y2="1"><stop offset="0%" stop-color="#071018"/><stop offset="100%" stop-color="#111827"/></linearGradient><marker id="arr2" markerWidth="10" markerHeight="10" refX="7" refY="3" orient="auto"><path d="M0,0 L0,6 L8,3 z" fill="#70c7e8"/></marker></defs>
  <rect width="1440" height="560" rx="34" fill="url(#abg)"/>
  <text x="72" y="76" fill="#ffffff" font-family="Inter, Segoe UI, Arial" font-size="36" font-weight="850">Agentic Research Workflow</text>
  <text x="72" y="110" fill="#a9bdd1" font-family="Inter, Segoe UI, Arial" font-size="16">The forecast becomes an argument, then a debated decision.</text>
  <rect x="80" y="190" width="250" height="94" rx="20" fill="#ffffff" opacity="0.09" stroke="#00d4ff" stroke-opacity="0.52"/>
  <text x="102" y="226" fill="#ffffff" font-family="Inter, Segoe UI, Arial" font-size="19" font-weight="800">ML Signal</text>
  <text x="102" y="254" fill="#a9bdd1" font-family="Inter, Segoe UI, Arial" font-size="13">ensemble price, signal, SHAP</text>
  <rect x="382" y="118" width="250" height="94" rx="20" fill="#ffffff" opacity="0.09" stroke="#61e294" stroke-opacity="0.52"/>
  <text x="404" y="154" fill="#ffffff" font-family="Inter, Segoe UI, Arial" font-size="19" font-weight="800">Technical Analyst</text>
  <text x="404" y="182" fill="#a9bdd1" font-family="Inter, Segoe UI, Arial" font-size="13">price action and feature logic</text>
  <rect x="382" y="270" width="250" height="94" rx="20" fill="#ffffff" opacity="0.09" stroke="#ffcc66" stroke-opacity="0.52"/>
  <text x="404" y="306" fill="#ffffff" font-family="Inter, Segoe UI, Arial" font-size="19" font-weight="800">Sentiment Analyst</text>
  <text x="404" y="334" fill="#a9bdd1" font-family="Inter, Segoe UI, Arial" font-size="13">FinBERT, news, macro context</text>
  <rect x="704" y="118" width="250" height="94" rx="20" fill="#ffffff" opacity="0.09" stroke="#00d4ff" stroke-opacity="0.52"/>
  <text x="726" y="154" fill="#ffffff" font-family="Inter, Segoe UI, Arial" font-size="19" font-weight="800">Bull Researcher</text>
  <text x="726" y="182" fill="#a9bdd1" font-family="Inter, Segoe UI, Arial" font-size="13">strongest upside case</text>
  <rect x="704" y="270" width="250" height="94" rx="20" fill="#ffffff" opacity="0.09" stroke="#ff6b6b" stroke-opacity="0.52"/>
  <text x="726" y="306" fill="#ffffff" font-family="Inter, Segoe UI, Arial" font-size="19" font-weight="800">Bear Researcher</text>
  <text x="726" y="334" fill="#a9bdd1" font-family="Inter, Segoe UI, Arial" font-size="13">strongest downside case</text>
  <rect x="1030" y="190" width="250" height="94" rx="20" fill="#ffffff" opacity="0.09" stroke="#b388ff" stroke-opacity="0.52"/>
  <text x="1052" y="226" fill="#ffffff" font-family="Inter, Segoe UI, Arial" font-size="19" font-weight="800">Portfolio Manager</text>
  <text x="1052" y="254" fill="#a9bdd1" font-family="Inter, Segoe UI, Arial" font-size="13">BUY, HALF, rationale</text>
  <path d="M330 237 C358 237, 358 165, 382 165" fill="none" stroke="#70c7e8" stroke-width="2.4" marker-end="url(#arr2)"/>
  <path d="M330 237 C358 237, 358 317, 382 317" fill="none" stroke="#70c7e8" stroke-width="2.4" marker-end="url(#arr2)"/>
  <path d="M632 165 C664 165, 672 165, 704 165" fill="none" stroke="#70c7e8" stroke-width="2.4" marker-end="url(#arr2)"/>
  <path d="M632 317 C664 317, 672 317, 704 317" fill="none" stroke="#70c7e8" stroke-width="2.4" marker-end="url(#arr2)"/>
  <path d="M954 165 C1000 165, 992 237, 1030 237" fill="none" stroke="#70c7e8" stroke-width="2.4" marker-end="url(#arr2)"/>
  <path d="M954 317 C1000 317, 992 237, 1030 237" fill="none" stroke="#70c7e8" stroke-width="2.4" marker-end="url(#arr2)"/>
  <text x="1038" y="410" fill="#a9bdd1" font-family="Inter, Segoe UI, Arial" font-size="15">Gradio result captured: BUY / HALF</text>
</svg>