<svg xmlns="http://www.w3.org/2000/svg" width="1440" height="760" viewBox="0 0 1440 760">
  <defs><linearGradient id="bg2" x1="0" y1="0" x2="1" y2="1"><stop offset="0%" stop-color="#06111d"/><stop offset="100%" stop-color="#101827"/></linearGradient><marker id="arr" markerWidth="10" markerHeight="10" refX="7" refY="3" orient="auto"><path d="M0,0 L0,6 L8,3 z" fill="#5ea8c7"/></marker><filter id="b"><feGaussianBlur stdDeviation="42"/></filter></defs>
  <rect width="1440" height="760" rx="34" fill="url(#bg2)"/>
  <circle cx="220" cy="140" r="220" fill="#00d4ff" opacity="0.13" filter="url(#b)"/><circle cx="1200" cy="650" r="260" fill="#b388ff" opacity="0.14" filter="url(#b)"/>
  <text x="70" y="78" fill="#ffffff" font-family="Inter, Segoe UI, Arial" font-size="36" font-weight="850">High-Level Architecture</text>
  <text x="70" y="112" fill="#a9bdd1" font-family="Inter, Segoe UI, Arial" font-size="16">The notebook behaves like a research operating system, not a single model script.</text>
  <rect x="72" y="170" width="250" height="94" rx="20" fill="#ffffff" opacity="0.09" stroke="#00d4ff" stroke-opacity="0.52"/>
  <text x="94" y="206" fill="#ffffff" font-family="Inter, Segoe UI, Arial" font-size="19" font-weight="800">Data Layer</text>
  <text x="94" y="234" fill="#a9bdd1" font-family="Inter, Segoe UI, Arial" font-size="13">yfinance, Finnhub, FRED, news</text>
  <rect x="380" y="170" width="250" height="94" rx="20" fill="#ffffff" opacity="0.09" stroke="#61e294" stroke-opacity="0.52"/>
  <text x="402" y="206" fill="#ffffff" font-family="Inter, Segoe UI, Arial" font-size="19" font-weight="800">Feature Factory</text>
  <text x="402" y="234" fill="#a9bdd1" font-family="Inter, Segoe UI, Arial" font-size="13">45 signals from price, volume, macro</text>
  <rect x="688" y="170" width="250" height="94" rx="20" fill="#ffffff" opacity="0.09" stroke="#b388ff" stroke-opacity="0.52"/>
  <text x="710" y="206" fill="#ffffff" font-family="Inter, Segoe UI, Arial" font-size="19" font-weight="800">Model Bench</text>
  <text x="710" y="234" fill="#a9bdd1" font-family="Inter, Segoe UI, Arial" font-size="13">linear, ridge, trees, ensemble, LSTM</text>
  <rect x="996" y="170" width="250" height="94" rx="20" fill="#ffffff" opacity="0.09" stroke="#ffcc66" stroke-opacity="0.52"/>
  <text x="1018" y="206" fill="#ffffff" font-family="Inter, Segoe UI, Arial" font-size="19" font-weight="800">Evaluation</text>
  <text x="1018" y="234" fill="#a9bdd1" font-family="Inter, Segoe UI, Arial" font-size="13">RMSE, MAE, CI, direction, tests</text>
  <path d="M322 217 C351 217, 351 217, 380 217" fill="none" stroke="#5ea8c7" stroke-width="2.4" marker-end="url(#arr)" opacity="0.75"/><path d="M630 217 C659 217, 659 217, 688 217" fill="none" stroke="#5ea8c7" stroke-width="2.4" marker-end="url(#arr)" opacity="0.75"/><path d="M938 217 C967 217, 967 217, 996 217" fill="none" stroke="#5ea8c7" stroke-width="2.4" marker-end="url(#arr)" opacity="0.75"/>
  <rect x="226" y="365" width="250" height="94" rx="20" fill="#ffffff" opacity="0.09" stroke="#00d4ff" stroke-opacity="0.52"/>
  <text x="248" y="401" fill="#ffffff" font-family="Inter, Segoe UI, Arial" font-size="19" font-weight="800">Explainability</text>
  <text x="248" y="429" fill="#a9bdd1" font-family="Inter, Segoe UI, Arial" font-size="13">SHAP ranks the signal drivers</text>
  <rect x="534" y="365" width="250" height="94" rx="20" fill="#ffffff" opacity="0.09" stroke="#b388ff" stroke-opacity="0.52"/>
  <text x="556" y="401" fill="#ffffff" font-family="Inter, Segoe UI, Arial" font-size="19" font-weight="800">Agentic Layer</text>
  <text x="556" y="429" fill="#a9bdd1" font-family="Inter, Segoe UI, Arial" font-size="13">technical, sentiment, bull, bear</text>
  <rect x="842" y="365" width="250" height="94" rx="20" fill="#ffffff" opacity="0.09" stroke="#61e294" stroke-opacity="0.52"/>
  <text x="864" y="401" fill="#ffffff" font-family="Inter, Segoe UI, Arial" font-size="19" font-weight="800">Portfolio Logic</text>
  <text x="864" y="429" fill="#a9bdd1" font-family="Inter, Segoe UI, Arial" font-size="13">decision, position, rationale</text>
  <path d="M1121 264 C736 264, 736 365, 351 365" fill="none" stroke="#5ea8c7" stroke-width="2.4" marker-end="url(#arr)" opacity="0.75"/><path d="M476 412 C505 412, 505 412, 534 412" fill="none" stroke="#5ea8c7" stroke-width="2.4" marker-end="url(#arr)" opacity="0.75"/><path d="M784 412 C813 412, 813 412, 842 412" fill="none" stroke="#5ea8c7" stroke-width="2.4" marker-end="url(#arr)" opacity="0.75"/>
  <rect x="380" y="560" width="250" height="94" rx="20" fill="#ffffff" opacity="0.09" stroke="#ff6b6b" stroke-opacity="0.52"/>
  <text x="402" y="596" fill="#ffffff" font-family="Inter, Segoe UI, Arial" font-size="19" font-weight="800">Backtest</text>
  <text x="402" y="624" fill="#a9bdd1" font-family="Inter, Segoe UI, Arial" font-size="13">long-flat signal, costs, risk gates</text>
  <rect x="688" y="560" width="250" height="94" rx="20" fill="#ffffff" opacity="0.09" stroke="#00d4ff" stroke-opacity="0.52"/>
  <text x="710" y="596" fill="#ffffff" font-family="Inter, Segoe UI, Arial" font-size="19" font-weight="800">Gradio UI</text>
  <text x="710" y="624" fill="#a9bdd1" font-family="Inter, Segoe UI, Arial" font-size="13">live card, forecast table, agents</text>
  <path d="M967 459 C736 459, 736 560, 505 560" fill="none" stroke="#5ea8c7" stroke-width="2.4" marker-end="url(#arr)" opacity="0.75"/><path d="M1092 459 C952.5 459, 952.5 560, 813 560" fill="none" stroke="#5ea8c7" stroke-width="2.4" marker-end="url(#arr)" opacity="0.75"/>
</svg>