<svg xmlns="http://www.w3.org/2000/svg" width="1320" height="620" viewBox="0 0 1320 620">
  <defs>
    <linearGradient id="bg" x1="0" y1="0" x2="1" y2="1">
      <stop offset="0%" stop-color="#071018"/>
      <stop offset="46%" stop-color="#0b1c2a"/>
      <stop offset="100%" stop-color="#111827"/>
    </linearGradient>
    <linearGradient id="glass" x1="0" y1="0" x2="1" y2="1">
      <stop offset="0%" stop-color="#ffffff" stop-opacity="0.16"/>
      <stop offset="100%" stop-color="#ffffff" stop-opacity="0.04"/>
    </linearGradient>
    <filter id="soft"><feGaussianBlur stdDeviation="30"/></filter>
  </defs>
  <rect width="1320" height="620" rx="30" fill="url(#bg)"/>
  <circle cx="190" cy="64" r="140" fill="#00d4ff" opacity="0.18" filter="url(#soft)"/>
  <circle cx="1110" cy="530" r="170" fill="#b388ff" opacity="0.16" filter="url(#soft)"/>
  <rect x="30" y="28" width="1260" height="564" rx="24" fill="url(#glass)" stroke="#28465f"/>
  <text x="64" y="70" fill="#ffffff" font-family="Inter, Segoe UI, Arial" font-size="29" font-weight="800">AAPL Out-of-Sample Return Forecasts</text>
  <text x="64" y="99" fill="#9fb7cf" font-family="Inter, Segoe UI, Arial" font-size="15">Last 170 test observations from predictions.csv</text>
  <line x1="78" y1="76" x2="78" y2="548" stroke="#37556c"/>
  <line x1="78" y1="548" x2="1278" y2="548" stroke="#37556c"/><line x1="78" y1="76" x2="1278" y2="76" stroke="#244258" opacity="0.65"/>
    <text x="66" y="81" text-anchor="end" fill="#91a8bd" font-family="Inter, Segoe UI, Arial" font-size="13">0.051</text><line x1="78" y1="194" x2="1278" y2="194" stroke="#244258" opacity="0.65"/>
    <text x="66" y="199" text-anchor="end" fill="#91a8bd" font-family="Inter, Segoe UI, Arial" font-size="13">0.022</text><line x1="78" y1="312" x2="1278" y2="312" stroke="#244258" opacity="0.65"/>
    <text x="66" y="317" text-anchor="end" fill="#91a8bd" font-family="Inter, Segoe UI, Arial" font-size="13">-0.006</text><line x1="78" y1="430" x2="1278" y2="430" stroke="#244258" opacity="0.65"/>
    <text x="66" y="435" text-anchor="end" fill="#91a8bd" font-family="Inter, Segoe UI, Arial" font-size="13">-0.034</text><line x1="78" y1="548" x2="1278" y2="548" stroke="#244258" opacity="0.65"/>
    <text x="66" y="553" text-anchor="end" fill="#91a8bd" font-family="Inter, Segoe UI, Arial" font-size="13">-0.062</text>
  <path d="M78.0,286.1 L85.1,261.6 L92.2,319.8 L99.3,207.0 L106.4,126.3 L113.5,279.5 L120.6,357.3 L127.7,269.7 L134.8,236.1 L141.9,193.8 L149.0,285.0 L156.1,277.1 L163.2,261.7 L170.3,303.9 L177.4,308.4 L184.5,272.6 L191.6,286.4 L198.7,293.7 L205.8,308.2 L212.9,269.0 L220.0,198.6 L227.1,315.1 L234.2,295.9 L241.3,296.3 L248.4,364.6 L255.5,288.3 L262.6,270.5 L269.7,324.1 L276.8,206.5 L283.9,220.3 L291.0,272.1 L298.1,279.2 L305.2,268.4 L312.3,224.7 L319.4,242.6 L326.5,317.9 L333.6,339.0 L340.7,316.7 L347.8,301.3 L354.9,298.7 L362.0,263.9 L369.1,299.2 L376.2,284.2 L383.3,351.1 L390.4,280.4 L397.5,330.4 L404.6,282.6 L411.7,265.3 L418.8,329.4 L425.9,266.6 L433.0,265.8 L440.1,294.2 L447.2,282.5 L454.3,298.4 L461.4,306.7 L468.5,301.1 L475.6,346.2 L482.7,365.3 L489.8,320.4 L496.9,308.7 L504.0,282.7 L511.1,273.8 L518.2,275.1 L525.3,305.5 L532.4,316.2 L539.5,331.6 L546.6,435.0 L553.7,271.9 L560.8,276.2 L567.9,293.2 L575.0,165.6 L582.1,241.4 L589.2,317.7 L596.3,258.1 L603.4,268.6 L610.5,121.7 L617.6,296.2 L624.7,180.6 L631.8,296.8 L638.9,254.6 L646.0,337.0 L653.1,302.3 L660.2,260.3 L667.3,502.3 L674.4,384.1 L681.6,157.6 L688.7,280.5 L695.8,348.0 L702.9,224.3 L710.0,262.8 L717.1,195.4 L724.2,256.0 L731.3,307.5 L738.4,424.5 L745.5,279.4 L752.6,303.3 L759.7,307.5 L766.8,323.6 L773.9,333.7 L781.0,248.9 L788.1,272.7 L795.2,288.3 L802.3,369.7 L809.4,381.2 L816.5,243.1 L823.6,264.7 L830.7,359.1 L837.8,304.4 L844.9,304.3 L852.0,229.4 L859.1,285.5 L866.2,271.7 L873.3,283.5 L880.4,356.1 L887.5,324.6 L894.6,168.3 L901.7,257.8 L908.8,283.2 L915.9,240.2 L923.0,375.4 L930.1,199.9 L937.2,262.4 L944.3,288.1 L951.4,308.6 L958.5,293.9 L965.6,167.0 L972.7,335.8 L979.8,181.0 L986.9,244.6 L994.0,394.7 L1001.1,179.5 L1008.2,284.0 L1015.3,324.4 L1022.4,341.5 L1029.5,239.8 L1036.6,296.3 L1043.7,269.8 L1050.8,154.7 L1057.9,337.7 L1065.0,178.4 L1072.1,239.3 L1079.2,289.0 L1086.3,203.3 L1093.4,293.3 L1100.5,257.8 L1107.6,230.7 L1114.7,297.2 L1121.8,259.8 L1128.9,321.4 L1136.0,272.1 L1143.1,242.4 L1150.2,250.2 L1157.3,235.8 L1164.4,294.6 L1171.5,253.9 L1178.6,265.7 L1185.7,294.0 L1192.8,365.7 L1199.9,168.4 L1207.0,354.0 L1214.1,274.9 L1221.2,340.6 L1228.3,367.6 L1235.4,443.2 L1242.5,273.2 L1249.6,230.3 L1256.7,352.1 L1263.8,212.7 L1270.9,248.4 L1278.0,334.2" fill="none" stroke="#eaf2ff" stroke-width="2" opacity="0.95"/>
  <path d="M78.0,286.3 L85.1,287.7 L92.2,289.1 L99.3,289.5 L106.4,287.9 L113.5,285.6 L120.6,285.3 L127.7,289.1 L134.8,286.6 L141.9,286.0 L149.0,284.9 L156.1,285.5 L163.2,286.2 L170.3,286.5 L177.4,286.3 L184.5,285.7 L191.6,286.0 L198.7,285.8 L205.8,286.4 L212.9,285.8 L220.0,286.2 L227.1,285.1 L234.2,287.9 L241.3,287.6 L248.4,287.5 L255.5,287.7 L262.6,287.4 L269.7,286.7 L276.8,286.7 L283.9,284.6 L291.0,284.6 L298.1,284.4 L305.2,285.2 L312.3,285.0 L319.4,284.9 L326.5,285.2 L333.6,285.9 L340.7,286.1 L347.8,286.3 L354.9,286.5 L362.0,287.8 L369.1,287.5 L376.2,287.5 L383.3,288.0 L390.4,288.0 L397.5,289.6 L404.6,288.4 L411.7,289.9 L418.8,287.6 L425.9,287.5 L433.0,288.9 L440.1,289.4 L447.2,289.6 L454.3,289.1 L461.4,288.4 L468.5,289.1 L475.6,288.1 L482.7,289.1 L489.8,287.1 L496.9,286.2 L504.0,285.0 L511.1,286.0 L518.2,286.2 L525.3,288.5 L532.4,286.9 L539.5,285.2 L546.6,286.8 L553.7,284.5 L560.8,283.8 L567.9,284.1 L575.0,285.6 L582.1,287.6 L589.2,288.0 L596.3,287.8 L603.4,287.4 L610.5,286.8 L617.6,285.3 L624.7,287.2 L631.8,286.1 L638.9,286.4 L646.0,286.8 L653.1,284.8 L660.2,285.9 L667.3,286.2 L674.4,287.4 L681.6,289.4 L688.7,290.6 L695.8,290.5 L702.9,291.5 L710.0,291.0 L717.1,289.6 L724.2,288.7 L731.3,286.9 L738.4,287.6 L745.5,289.7 L752.6,288.6 L759.7,289.2 L766.8,289.1 L773.9,287.6 L781.0,287.1 L788.1,287.9 L795.2,289.7 L802.3,292.1 L809.4,291.4 L816.5,286.8 L823.6,285.0 L830.7,288.3 L837.8,289.0 L844.9,285.1 L852.0,285.0 L859.1,287.3 L866.2,290.2 L873.3,290.8 L880.4,291.9 L887.5,286.6 L894.6,288.0 L901.7,290.0 L908.8,287.2 L915.9,287.2 L923.0,287.0 L930.1,288.3 L937.2,285.6 L944.3,285.2 L951.4,287.4 L958.5,287.0 L965.6,287.3 L972.7,284.9 L979.8,286.9 L986.9,285.8 L994.0,285.5 L1001.1,286.4 L1008.2,284.8 L1015.3,285.9 L1022.4,286.0 L1029.5,286.0 L1036.6,286.5 L1043.7,287.3 L1050.8,286.3 L1057.9,286.1 L1065.0,285.9 L1072.1,285.8 L1079.2,285.1 L1086.3,285.9 L1093.4,285.8 L1100.5,285.2 L1107.6,285.5 L1114.7,286.0 L1121.8,286.0 L1128.9,285.4 L1136.0,285.1 L1143.1,285.9 L1150.2,285.0 L1157.3,285.6 L1164.4,286.0 L1171.5,286.6 L1178.6,285.8 L1185.7,286.1 L1192.8,285.8 L1199.9,286.2 L1207.0,285.4 L1214.1,287.2 L1221.2,286.2 L1228.3,286.1 L1235.4,286.5 L1242.5,287.3 L1249.6,286.6 L1256.7,286.7 L1263.8,285.8 L1270.9,286.4 L1278.0,286.7" fill="none" stroke="#00d4ff" stroke-width="2.4"/>
  <path d="M78.0,297.8 L85.1,298.0 L92.2,298.2 L99.3,301.5 L106.4,302.4 L113.5,309.1 L120.6,295.8 L127.7,306.2 L134.8,302.2 L141.9,301.2 L149.0,302.2 L156.1,297.9 L163.2,294.7 L170.3,299.2 L177.4,296.0 L184.5,301.5 L191.6,301.7 L198.7,301.7 L205.8,299.1 L212.9,300.2 L220.0,300.3 L227.1,300.1 L234.2,300.8 L241.3,300.2 L248.4,303.1 L255.5,304.4 L262.6,304.0 L269.7,301.7 L276.8,302.8 L283.9,299.8 L291.0,298.4 L298.1,300.1 L305.2,301.0 L312.3,301.4 L319.4,302.2 L326.5,301.7 L333.6,300.5 L340.7,301.3 L347.8,299.2 L354.9,300.2 L362.0,301.3 L369.1,294.1 L376.2,294.2 L383.3,290.8 L390.4,302.4 L397.5,300.5 L404.6,299.7 L411.7,303.7 L418.8,299.6 L425.9,299.8 L433.0,298.1 L440.1,299.5 L447.2,298.6 L454.3,297.7 L461.4,295.5 L468.5,296.6 L475.6,295.9 L482.7,302.8 L489.8,299.9 L496.9,293.5 L504.0,289.6 L511.1,292.3 L518.2,289.9 L525.3,293.3 L532.4,291.9 L539.5,291.0 L546.6,291.4 L553.7,293.5 L560.8,283.7 L567.9,282.9 L575.0,281.4 L582.1,294.7 L589.2,295.1 L596.3,295.7 L603.4,297.8 L610.5,295.2 L617.6,313.2 L624.7,303.5 L631.8,298.5 L638.9,301.1 L646.0,304.5 L653.1,301.6 L660.2,303.0 L667.3,300.6 L674.4,312.9 L681.6,302.3 L688.7,303.1 L695.8,301.1 L702.9,304.2 L710.0,301.3 L717.1,301.0 L724.2,304.1 L731.3,300.0 L738.4,300.2 L745.5,302.1 L752.6,303.2 L759.7,302.3 L766.8,304.4 L773.9,299.3 L781.0,301.1 L788.1,303.4 L795.2,302.8 L802.3,305.0 L809.4,305.9 L816.5,299.7 L823.6,298.9 L830.7,299.3 L837.8,301.2 L844.9,296.8 L852.0,298.6 L859.1,304.1 L866.2,300.7 L873.3,305.4 L880.4,299.8 L887.5,299.8 L894.6,302.1 L901.7,313.7 L908.8,298.3 L915.9,300.2 L923.0,303.8 L930.1,305.5 L937.2,303.5 L944.3,299.6 L951.4,302.6 L958.5,304.6 L965.6,304.2 L972.7,301.2 L979.8,301.9 L986.9,301.8 L994.0,302.4 L1001.1,307.1 L1008.2,301.0 L1015.3,300.9 L1022.4,300.8 L1029.5,303.0 L1036.6,301.3 L1043.7,301.5 L1050.8,297.9 L1057.9,297.6 L1065.0,301.1 L1072.1,305.9 L1079.2,300.2 L1086.3,300.5 L1093.4,305.8 L1100.5,307.9 L1107.6,308.3 L1114.7,312.7 L1121.8,312.3 L1128.9,309.9 L1136.0,311.5 L1143.1,311.4 L1150.2,310.1 L1157.3,309.7 L1164.4,310.3 L1171.5,313.0 L1178.6,309.8 L1185.7,311.0 L1192.8,310.8 L1199.9,316.0 L1207.0,311.8 L1214.1,312.1 L1221.2,308.6 L1228.3,302.9 L1235.4,315.8 L1242.5,318.2 L1249.6,301.0 L1256.7,308.5 L1263.8,306.9 L1270.9,304.0 L1278.0,299.9" fill="none" stroke="#b388ff" stroke-width="2.2"/>
  <g font-family="Inter, Segoe UI, Arial" font-size="14" fill="#d8e7f7">
    <circle cx="88" cy="126" r="5" fill="#eaf2ff"/><text x="102" y="131">Actual return</text>
    <circle cx="234" cy="126" r="5" fill="#00d4ff"/><text x="248" y="131">XGBoost</text>
    <circle cx="347" cy="126" r="5" fill="#b388ff"/><text x="361" y="131">Ensemble</text>
  </g>
  <text x="78" y="578" fill="#8da6bd" font-family="Inter, Segoe UI, Arial" font-size="13">2025-10-13</text>
  <text x="1278" y="578" text-anchor="end" fill="#8da6bd" font-family="Inter, Segoe UI, Arial" font-size="13">2026-06-16</text>
  <text x="1256" y="582" text-anchor="end" fill="#6e879f" font-family="Inter, Segoe UI, Arial" font-size="13">Target is next-day log return</text>
</svg>