<svg xmlns="http://www.w3.org/2000/svg" width="1440" height="520" viewBox="0 0 1440 520">
  <defs>
    <linearGradient id="heroBg" x1="0" y1="0" x2="1" y2="1"><stop offset="0%" stop-color="#06111d"/><stop offset="48%" stop-color="#0a2030"/><stop offset="100%" stop-color="#111827"/></linearGradient>
    <linearGradient id="cyan" x1="0" y1="0" x2="1" y2="1"><stop offset="0%" stop-color="#00d4ff"/><stop offset="100%" stop-color="#7c4dff"/></linearGradient>
    <filter id="blur"><feGaussianBlur stdDeviation="38"/></filter>
  </defs>
  <rect width="1440" height="520" rx="38" fill="url(#heroBg)"/>
  <circle cx="180" cy="90" r="190" fill="#00d4ff" opacity="0.19" filter="url(#blur)"/>
  <circle cx="1230" cy="420" r="230" fill="#b388ff" opacity="0.18" filter="url(#blur)"/>
  <path d="M70 410 C250 280, 380 505, 560 355 S880 260, 1040 340 S1250 430, 1370 285" fill="none" stroke="url(#cyan)" stroke-width="5" opacity="0.85"/>
  <rect x="72" y="70" width="820" height="310" rx="28" fill="#ffffff" opacity="0.08" stroke="#ffffff" stroke-opacity="0.18"/>
  <text x="112" y="140" fill="#ffffff" font-family="Inter, Segoe UI, Arial" font-size="54" font-weight="850">Agentic Quant Research Platform</text>
  <text x="116" y="190" fill="#b9cbe0" font-family="Inter, Segoe UI, Arial" font-size="22">ML forecasting, explainable features, live market data, and multi-agent reasoning for AAPL.</text>
  <text x="116" y="240" fill="#7bdcff" font-family="Inter, Segoe UI, Arial" font-size="16" font-weight="700">AAPL runtime snapshot</text>
  <g font-family="Inter, Segoe UI, Arial">
    <rect x="116" y="262" width="172" height="72" rx="18" fill="#ffffff" opacity="0.10" stroke="#ffffff" stroke-opacity="0.16"/><text x="136" y="292" fill="#9fb7cf" font-size="13">Best RMSE</text><text x="136" y="319" fill="#ffffff" font-size="25" font-weight="800">XGBoost</text>
    <rect x="306" y="262" width="172" height="72" rx="18" fill="#ffffff" opacity="0.10" stroke="#ffffff" stroke-opacity="0.16"/><text x="326" y="292" fill="#9fb7cf" font-size="13">RMSE</text><text x="326" y="319" fill="#ffffff" font-size="25" font-weight="800">0.01761</text>
    <rect x="496" y="262" width="172" height="72" rx="18" fill="#ffffff" opacity="0.10" stroke="#ffffff" stroke-opacity="0.16"/><text x="516" y="292" fill="#9fb7cf" font-size="13">Best direction</text><text x="516" y="319" fill="#ffffff" font-size="25" font-weight="800">51.98%</text>
    <rect x="686" y="262" width="172" height="72" rx="18" fill="#ffffff" opacity="0.10" stroke="#ffffff" stroke-opacity="0.16"/><text x="706" y="292" fill="#9fb7cf" font-size="13">Live signal</text><text x="706" y="319" fill="#ffffff" font-size="25" font-weight="800">BEARISH</text>
  </g>
  <g transform="translate(970 98)" font-family="Inter, Segoe UI, Arial">
    <rect width="360" height="300" rx="28" fill="#ffffff" opacity="0.09" stroke="#ffffff" stroke-opacity="0.2"/>
    <text x="34" y="58" fill="#ffffff" font-size="24" font-weight="800">Workflow Core</text>
    <text x="34" y="98" fill="#b9cbe0" font-size="16">Data -> Features -> Models</text>
    <text x="34" y="132" fill="#b9cbe0" font-size="16">SHAP -> Agents -> Decision</text>
    <rect x="34" y="176" width="292" height="64" rx="18" fill="#06111d" opacity="0.72" stroke="#2a536d"/>
    <text x="56" y="204" fill="#9fb7cf" font-size="13">Tomorrow forecast</text>
    <text x="56" y="229" fill="#ffffff" font-size="26" font-weight="800">$297.29 (-0.26%)</text>
  </g>
</svg>