<svg xmlns="http://www.w3.org/2000/svg" width="1320" height="620" viewBox="0 0 1320 620">
  <defs>
    <linearGradient id="bg" x1="0" y1="0" x2="1" y2="1">
      <stop offset="0%" stop-color="#071018"/>
      <stop offset="46%" stop-color="#0b1c2a"/>
      <stop offset="100%" stop-color="#111827"/>
    </linearGradient>
    <linearGradient id="glass" x1="0" y1="0" x2="1" y2="1">
      <stop offset="0%" stop-color="#ffffff" stop-opacity="0.16"/>
      <stop offset="100%" stop-color="#ffffff" stop-opacity="0.04"/>
    </linearGradient>
    <filter id="soft"><feGaussianBlur stdDeviation="30"/></filter>
  </defs>
  <rect width="1320" height="620" rx="30" fill="url(#bg)"/>
  <circle cx="190" cy="64" r="140" fill="#00d4ff" opacity="0.18" filter="url(#soft)"/>
  <circle cx="1110" cy="530" r="170" fill="#b388ff" opacity="0.16" filter="url(#soft)"/>
  <rect x="30" y="28" width="1260" height="564" rx="24" fill="url(#glass)" stroke="#28465f"/>
  <text x="64" y="70" fill="#ffffff" font-family="Inter, Segoe UI, Arial" font-size="29" font-weight="800">XGBoost Residual Diagnostics</text>
  <text x="64" y="99" fill="#9fb7cf" font-family="Inter, Segoe UI, Arial" font-size="15">Actual minus predicted on the 537-day test set</text>
  <line x1="78" y1="76" x2="78" y2="548" stroke="#37556c"/>
  <line x1="78" y1="548" x2="1278" y2="548" stroke="#37556c"/><line x1="78" y1="76" x2="1278" y2="76" stroke="#244258" opacity="0.65"/>
    <text x="66" y="81" text-anchor="end" fill="#91a8bd" font-family="Inter, Segoe UI, Arial" font-size="13">174.000</text><line x1="78" y1="194" x2="1278" y2="194" stroke="#244258" opacity="0.65"/>
    <text x="66" y="199" text-anchor="end" fill="#91a8bd" font-family="Inter, Segoe UI, Arial" font-size="13">130.500</text><line x1="78" y1="312" x2="1278" y2="312" stroke="#244258" opacity="0.65"/>
    <text x="66" y="317" text-anchor="end" fill="#91a8bd" font-family="Inter, Segoe UI, Arial" font-size="13">87.000</text><line x1="78" y1="430" x2="1278" y2="430" stroke="#244258" opacity="0.65"/>
    <text x="66" y="435" text-anchor="end" fill="#91a8bd" font-family="Inter, Segoe UI, Arial" font-size="13">43.500</text><line x1="78" y1="548" x2="1278" y2="548" stroke="#244258" opacity="0.65"/>
    <text x="66" y="553" text-anchor="end" fill="#91a8bd" font-family="Inter, Segoe UI, Arial" font-size="13">0.000</text><rect x="80.0" y="548.0" width="29.3" height="0.0" rx="4" fill="#00d4ff" opacity="0.45"/><rect x="113.3" y="548.0" width="29.3" height="0.0" rx="4" fill="#00d4ff" opacity="0.45"/><rect x="146.7" y="548.0" width="29.3" height="0.0" rx="4" fill="#00d4ff" opacity="0.45"/><rect x="180.0" y="545.3" width="29.3" height="2.7" rx="4" fill="#00d4ff" opacity="0.45287356321839084"/><rect x="213.3" y="548.0" width="29.3" height="0.0" rx="4" fill="#00d4ff" opacity="0.45"/><rect x="246.7" y="545.3" width="29.3" height="2.7" rx="4" fill="#00d4ff" opacity="0.45287356321839084"/><rect x="280.0" y="548.0" width="29.3" height="0.0" rx="4" fill="#00d4ff" opacity="0.45"/><rect x="313.3" y="548.0" width="29.3" height="0.0" rx="4" fill="#00d4ff" opacity="0.45"/><rect x="346.7" y="542.6" width="29.3" height="5.4" rx="4" fill="#00d4ff" opacity="0.4557471264367816"/><rect x="380.0" y="539.9" width="29.3" height="8.1" rx="4" fill="#00d4ff" opacity="0.45862068965517244"/><rect x="413.3" y="529.0" width="29.3" height="19.0" rx="4" fill="#00d4ff" opacity="0.47011494252873565"/><rect x="446.7" y="507.3" width="29.3" height="40.7" rx="4" fill="#00d4ff" opacity="0.49310344827586206"/><rect x="480.0" y="488.3" width="29.3" height="59.7" rx="4" fill="#00d4ff" opacity="0.5132183908045977"/><rect x="513.3" y="417.8" width="29.3" height="130.2" rx="4" fill="#00d4ff" opacity="0.5879310344827586"/><rect x="546.7" y="290.3" width="29.3" height="257.7" rx="4" fill="#00d4ff" opacity="0.7229885057471265"/><rect x="580.0" y="76.0" width="29.3" height="472.0" rx="4" fill="#00d4ff" opacity="0.95"/><rect x="613.3" y="320.1" width="29.3" height="227.9" rx="4" fill="#00d4ff" opacity="0.6913793103448276"/><rect x="646.7" y="412.4" width="29.3" height="135.6" rx="4" fill="#00d4ff" opacity="0.5936781609195403"/><rect x="680.0" y="501.9" width="29.3" height="46.1" rx="4" fill="#00d4ff" opacity="0.4988505747126437"/><rect x="713.3" y="523.6" width="29.3" height="24.4" rx="4" fill="#00d4ff" opacity="0.47586206896551725"/><rect x="746.7" y="537.1" width="29.3" height="10.9" rx="4" fill="#00d4ff" opacity="0.4614942528735632"/><rect x="780.0" y="545.3" width="29.3" height="2.7" rx="4" fill="#00d4ff" opacity="0.45287356321839084"/><rect x="813.3" y="542.6" width="29.3" height="5.4" rx="4" fill="#00d4ff" opacity="0.4557471264367816"/><rect x="846.7" y="545.3" width="29.3" height="2.7" rx="4" fill="#00d4ff" opacity="0.45287356321839084"/><rect x="880.0" y="548.0" width="29.3" height="0.0" rx="4" fill="#00d4ff" opacity="0.45"/><rect x="913.3" y="548.0" width="29.3" height="0.0" rx="4" fill="#00d4ff" opacity="0.45"/><rect x="946.7" y="548.0" width="29.3" height="0.0" rx="4" fill="#00d4ff" opacity="0.45"/><rect x="980.0" y="548.0" width="29.3" height="0.0" rx="4" fill="#00d4ff" opacity="0.45"/><rect x="1013.3" y="548.0" width="29.3" height="0.0" rx="4" fill="#00d4ff" opacity="0.45"/><rect x="1046.7" y="548.0" width="29.3" height="0.0" rx="4" fill="#00d4ff" opacity="0.45"/><rect x="1080.0" y="548.0" width="29.3" height="0.0" rx="4" fill="#00d4ff" opacity="0.45"/><rect x="1113.3" y="548.0" width="29.3" height="0.0" rx="4" fill="#00d4ff" opacity="0.45"/><rect x="1146.7" y="545.3" width="29.3" height="2.7" rx="4" fill="#00d4ff" opacity="0.45287356321839084"/><rect x="1180.0" y="548.0" width="29.3" height="0.0" rx="4" fill="#00d4ff" opacity="0.45"/><rect x="1213.3" y="548.0" width="29.3" height="0.0" rx="4" fill="#00d4ff" opacity="0.45"/><rect x="1246.7" y="548.0" width="29.3" height="0.0" rx="4" fill="#00d4ff" opacity="0.45"/><text x="88" y="126" fill="#d8e7f7" font-family="Inter, Segoe UI, Arial" font-size="14">Mean residual: 0.00091</text>
<text x="88" y="150" fill="#9fb7cf" font-family="Inter, Segoe UI, Arial" font-size="14">Std residual: 0.01761</text>
  <text x="1256" y="582" text-anchor="end" fill="#6e879f" font-family="Inter, Segoe UI, Arial" font-size="13">Small, noisy residuals are expected in daily return prediction</text>
</svg>