<svg xmlns="http://www.w3.org/2000/svg" width="1320" height="620" viewBox="0 0 1320 620">
  <defs>
    <linearGradient id="bg" x1="0" y1="0" x2="1" y2="1">
      <stop offset="0%" stop-color="#071018"/>
      <stop offset="46%" stop-color="#0b1c2a"/>
      <stop offset="100%" stop-color="#111827"/>
    </linearGradient>
    <linearGradient id="glass" x1="0" y1="0" x2="1" y2="1">
      <stop offset="0%" stop-color="#ffffff" stop-opacity="0.16"/>
      <stop offset="100%" stop-color="#ffffff" stop-opacity="0.04"/>
    </linearGradient>
    <filter id="soft"><feGaussianBlur stdDeviation="30"/></filter>
  </defs>
  <rect width="1320" height="620" rx="30" fill="url(#bg)"/>
  <circle cx="190" cy="64" r="140" fill="#00d4ff" opacity="0.18" filter="url(#soft)"/>
  <circle cx="1110" cy="530" r="170" fill="#b388ff" opacity="0.16" filter="url(#soft)"/>
  <rect x="30" y="28" width="1260" height="564" rx="24" fill="url(#glass)" stroke="#28465f"/>
  <text x="64" y="70" fill="#ffffff" font-family="Inter, Segoe UI, Arial" font-size="29" font-weight="800">Simple Signal Path on Test Window</text>
  <text x="64" y="99" fill="#9fb7cf" font-family="Inter, Segoe UI, Arial" font-size="15">A quick visual sanity check, not a production trading claim</text>
  <line x1="78" y1="76" x2="78" y2="548" stroke="#37556c"/>
  <line x1="78" y1="548" x2="1278" y2="548" stroke="#37556c"/><line x1="78" y1="76" x2="1278" y2="76" stroke="#244258" opacity="0.65"/>
    <text x="66" y="81" text-anchor="end" fill="#91a8bd" font-family="Inter, Segoe UI, Arial" font-size="13">97.953</text><line x1="78" y1="194" x2="1278" y2="194" stroke="#244258" opacity="0.65"/>
    <text x="66" y="199" text-anchor="end" fill="#91a8bd" font-family="Inter, Segoe UI, Arial" font-size="13">70.673</text><line x1="78" y1="312" x2="1278" y2="312" stroke="#244258" opacity="0.65"/>
    <text x="66" y="317" text-anchor="end" fill="#91a8bd" font-family="Inter, Segoe UI, Arial" font-size="13">43.394</text><line x1="78" y1="430" x2="1278" y2="430" stroke="#244258" opacity="0.65"/>
    <text x="66" y="435" text-anchor="end" fill="#91a8bd" font-family="Inter, Segoe UI, Arial" font-size="13">16.115</text><line x1="78" y1="548" x2="1278" y2="548" stroke="#244258" opacity="0.65"/>
    <text x="66" y="553" text-anchor="end" fill="#91a8bd" font-family="Inter, Segoe UI, Arial" font-size="13">-11.164</text>
  <path d="M78.0,501.2 L80.2,490.5 L82.5,498.6 L84.7,501.2 L87.0,491.7 L89.2,465.4 L91.4,469.6 L93.7,467.9 L95.9,467.0 L98.1,462.3 L100.4,465.6 L102.6,457.3 L104.9,454.4 L107.1,448.6 L109.3,448.3 L111.6,448.2 L113.8,445.2 L116.1,441.9 L118.3,445.6 L120.5,455.8 L122.8,447.9 L125.0,447.9 L127.3,447.1 L129.5,444.6 L131.7,442.1 L134.0,437.6 L136.2,436.8 L138.4,432.9 L140.7,436.4 L142.9,430.3 L145.2,439.9 L147.4,404.1 L149.6,389.0 L151.9,386.0 L154.1,390.5 L156.4,379.9 L158.6,385.9 L160.8,397.7 L163.1,403.3 L165.3,401.6 L167.6,399.2 L169.8,388.6 L172.0,386.4 L174.3,395.3 L176.5,379.6 L178.7,370.7 L181.0,367.4 L183.2,355.2 L185.5,351.4 L187.7,349.2 L189.9,338.3 L192.2,352.1 L194.4,344.5 L196.7,334.6 L198.9,333.6 L201.1,348.7 L203.4,360.7 L205.6,360.4 L207.9,361.3 L210.1,358.6 L212.3,375.1 L214.6,377.8 L216.8,376.6 L219.0,375.8 L221.3,374.4 L223.5,366.1 L225.8,375.5 L228.0,371.7 L230.2,398.7 L232.5,403.9 L234.7,397.3 L237.0,388.4 L239.2,380.9 L241.4,377.0 L243.7,367.5 L245.9,366.3 L248.1,358.7 L250.4,355.3 L252.6,355.7 L254.9,354.1 L257.1,354.4 L259.3,359.1 L261.6,353.3 L263.8,352.4 L266.1,350.2 L268.3,354.1 L270.5,345.7 L272.8,347.7 L275.0,363.6 L277.3,368.5 L279.5,364.6 L281.7,368.6 L284.0,368.4 L286.2,370.4 L288.4,363.9 L290.7,363.6 L292.9,364.3 L295.2,380.1 L297.4,378.9 L299.6,368.9 L301.9,348.1 L304.1,349.8 L306.4,354.2 L308.6,351.9 L310.8,354.5 L313.1,351.5 L315.3,350.8 L317.6,337.5 L319.8,354.9 L322.0,353.4 L324.3,356.2 L326.5,353.4 L328.7,366.4 L331.0,356.0 L333.2,346.4 L335.5,347.6 L337.7,351.4 L339.9,341.9 L342.2,335.4 L344.4,340.6 L346.7,339.7 L348.9,332.4 L351.1,328.6 L353.4,330.2 L355.6,343.2 L357.9,343.7 L360.1,341.6 L362.3,336.5 L364.6,335.8 L366.8,344.9 L369.0,355.6 L371.3,363.3 L373.5,365.6 L375.8,361.9 L378.0,363.8 L380.2,351.6 L382.5,352.3 L384.7,359.3 L387.0,359.3 L389.2,357.0 L391.4,349.1 L393.7,357.3 L395.9,349.6 L398.1,348.9 L400.4,347.1 L402.6,348.3 L404.9,344.9 L407.1,337.2 L409.3,331.6 L411.6,331.9 L413.8,325.8 L416.1,320.0 L418.3,312.2 L420.5,311.3 L422.8,311.2 L425.0,311.7 L427.3,301.7 L429.5,299.1 L431.7,302.4 L434.0,298.6 L436.2,298.2 L438.4,290.8 L440.7,284.5 L442.9,298.4 L445.2,294.0 L447.4,282.0 L449.6,280.0 L451.9,272.5 L454.1,270.4 L456.4,279.1 L458.6,287.8 L460.8,292.4 L463.1,309.1 L465.3,310.4 L467.6,306.2 L469.8,313.3 L472.0,312.1 L474.3,327.0 L476.5,333.3 L478.7,336.2 L481.0,324.4 L483.2,349.0 L485.5,344.6 L487.7,363.3 L489.9,360.3 L492.2,360.7 L494.4,363.0 L496.7,344.9 L498.9,323.4 L501.1,320.6 L503.4,325.1 L505.6,329.2 L507.9,349.6 L510.1,337.4 L512.3,338.2 L514.6,336.3 L516.8,350.6 L519.0,349.9 L521.3,337.2 L523.5,326.3 L525.8,314.4 L528.0,306.5 L530.2,306.9 L532.5,305.9 L534.7,303.4 L537.0,304.1 L539.2,300.1 L541.4,300.3 L543.7,317.4 L545.9,325.2 L548.1,313.6 L550.4,323.4 L552.6,328.7 L554.9,329.2 L557.1,330.3 L559.3,320.7 L561.6,350.3 L563.8,367.3 L566.1,377.2 L568.3,395.9 L570.5,386.1 L572.8,384.8 L575.0,388.2 L577.3,381.7 L579.5,384.6 L581.7,373.9 L584.0,367.6 L586.2,359.9 L588.4,365.6 L590.7,359.6 L592.9,374.8 L595.2,364.0 L597.4,361.3 L599.6,359.5 L601.9,412.5 L604.1,450.4 L606.4,468.1 L608.6,491.2 L610.8,423.6 L613.1,445.1 L615.3,425.4 L617.6,414.2 L619.8,415.2 L622.0,435.3 L624.3,428.4 L626.5,438.1 L628.7,421.3 L631.0,408.9 L633.2,399.2 L635.5,396.9 L637.7,394.7 L639.9,392.0 L642.2,388.7 L644.4,386.6 L646.7,407.0 L648.9,423.5 L651.1,424.4 L653.4,430.2 L655.6,427.1 L657.9,424.4 L660.1,392.3 L662.3,386.8 L664.6,388.4 L666.8,390.6 L669.0,391.1 L671.3,397.5 L673.5,402.4 L675.8,414.6 L678.0,416.5 L680.2,432.1 L682.5,419.4 L684.7,418.9 L687.0,420.1 L689.2,417.8 L691.4,415.6 L693.7,411.6 L695.9,412.7 L698.1,418.4 L700.4,409.9 L702.6,416.3 L704.9,413.1 L707.1,423.1 L709.3,422.0 L711.6,429.1 L713.8,424.0 L716.1,431.1 L718.3,428.7 L720.5,417.4 L722.8,416.1 L725.0,419.2 L727.3,416.0 L729.5,417.4 L731.7,417.2 L734.0,406.7 L736.2,399.9 L738.4,388.1 L740.7,385.3 L742.9,394.5 L745.2,394.3 L747.4,391.4 L749.6,388.2 L751.9,391.4 L754.1,397.9 L756.4,396.6 L758.6,393.9 L760.8,394.3 L763.1,391.3 L765.3,388.0 L767.6,383.1 L769.8,383.7 L772.0,384.7 L774.3,384.4 L776.5,384.0 L778.7,391.1 L781.0,396.8 L783.2,400.6 L785.5,413.9 L787.7,411.4 L789.9,412.5 L792.2,386.0 L794.4,368.7 L796.7,344.8 L798.9,349.7 L801.1,343.4 L803.4,333.9 L805.6,335.3 L807.9,338.4 L810.1,340.2 L812.3,341.0 L814.6,352.7 L816.8,355.5 L819.0,348.2 L821.3,349.7 L823.5,344.2 L825.8,341.2 L828.0,335.9 L830.2,337.0 L832.5,343.2 L834.7,320.7 L837.0,317.4 L839.2,317.6 L841.4,322.2 L843.7,331.3 L845.9,350.7 L848.1,342.4 L850.4,332.0 L852.6,325.3 L854.9,321.6 L857.1,319.4 L859.3,322.2 L861.6,302.7 L863.8,275.6 L866.1,279.8 L868.3,285.2 L870.5,273.5 L872.8,277.2 L875.0,279.8 L877.3,279.3 L879.5,277.2 L881.7,272.9 L884.0,270.6 L886.2,274.0 L888.4,274.5 L890.7,270.5 L892.9,280.8 L895.2,303.3 L897.4,297.2 L899.6,296.9 L901.9,292.9 L904.1,297.7 L906.4,285.3 L908.6,259.8 L910.8,258.4 L913.1,269.5 L915.3,266.6 L917.6,258.3 L919.8,242.9 L922.0,242.4 L924.3,240.6 L926.5,236.3 L928.7,238.9 L931.0,242.3 L933.2,239.8 L935.5,239.5 L937.7,240.5 L939.9,243.8 L942.2,240.7 L944.4,225.7 L946.7,230.3 L948.9,231.6 L951.1,233.0 L953.4,245.7 L955.6,245.8 L957.9,242.9 L960.1,248.8 L962.3,235.4 L964.6,224.0 L966.8,221.3 L969.0,219.8 L971.3,216.5 L973.5,205.6 L975.8,197.6 L978.0,202.9 L980.2,211.7 L982.5,216.7 L984.7,219.0 L987.0,220.8 L989.2,216.7 L991.4,218.6 L993.7,218.0 L995.9,228.7 L998.1,227.4 L1000.4,234.5 L1002.6,233.6 L1004.9,229.8 L1007.1,236.7 L1009.3,233.1 L1011.6,229.4 L1013.8,230.5 L1016.1,229.6 L1018.3,231.3 L1020.5,234.4 L1022.8,236.6 L1025.0,246.2 L1027.3,258.8 L1029.5,264.0 L1031.7,267.3 L1034.0,266.5 L1036.2,264.2 L1038.4,262.2 L1040.7,265.0 L1042.9,269.5 L1045.2,276.3 L1047.4,299.0 L1049.6,296.6 L1051.9,294.8 L1054.1,295.6 L1056.4,276.7 L1058.6,269.3 L1060.8,274.0 L1063.1,269.3 L1065.3,266.2 L1067.6,239.2 L1069.8,240.5 L1072.0,222.5 L1074.3,224.0 L1076.5,218.4 L1078.7,226.7 L1081.0,229.1 L1083.2,224.4 L1085.5,259.8 L1087.7,275.1 L1089.9,254.3 L1092.2,253.1 L1094.4,262.8 L1096.7,252.5 L1098.9,248.4 L1101.1,233.1 L1103.4,227.7 L1105.6,231.0 L1107.9,253.5 L1110.1,252.1 L1112.3,254.6 L1114.6,257.8 L1116.8,263.5 L1119.0,270.8 L1121.3,264.6 L1123.5,262.1 L1125.8,262.2 L1128.0,275.1 L1130.2,289.6 L1132.5,282.7 L1134.7,279.1 L1137.0,290.1 L1139.2,292.6 L1141.4,295.1 L1143.7,286.1 L1145.9,285.7 L1148.1,283.2 L1150.4,282.5 L1152.6,293.0 L1154.9,298.6 L1157.1,280.2 L1159.3,275.5 L1161.6,274.7 L1163.8,267.2 L1166.1,281.0 L1168.3,267.1 L1170.5,263.0 L1172.8,263.0 L1175.0,266.3 L1177.3,267.3 L1179.5,247.7 L1181.7,255.5 L1184.0,238.0 L1186.2,230.7 L1188.4,248.4 L1190.7,230.4 L1192.9,229.7 L1195.2,235.8 L1197.4,244.7 L1199.6,236.7 L1201.9,238.1 L1204.1,235.1 L1206.4,212.5 L1208.6,221.0 L1210.8,202.1 L1213.1,193.6 L1215.3,193.7 L1217.6,178.6 L1219.8,179.6 L1222.0,174.1 L1224.3,163.7 L1226.5,165.4 L1228.7,160.2 L1231.0,166.3 L1233.2,163.4 L1235.5,155.0 L1237.7,147.9 L1239.9,138.1 L1242.2,139.3 L1244.4,132.9 L1246.7,128.6 L1248.9,129.8 L1251.1,144.5 L1253.4,121.7 L1255.6,134.4 L1257.9,131.9 L1260.1,141.9 L1262.3,156.8 L1264.6,185.1 L1266.8,182.4 L1269.0,172.0 L1271.3,183.6 L1273.5,170.0 L1275.8,162.7 L1278.0,171.2" fill="none" stroke="#eaf2ff" stroke-width="2.2"/>
  <path d="M78.0,499.7 L80.2,499.7 L82.5,499.7 L84.7,502.3 L87.0,502.3 L89.2,476.6 L91.4,480.8 L93.7,480.8 L95.9,479.9 L98.1,475.4 L100.4,478.5 L102.6,470.5 L104.9,467.7 L107.1,462.0 L109.3,461.7 L111.6,461.6 L113.8,458.7 L116.1,455.5 L118.3,459.1 L120.5,469.0 L122.8,461.4 L125.0,461.3 L127.3,460.6 L129.5,458.1 L131.7,455.7 L134.0,451.3 L136.2,450.5 L138.4,446.8 L140.7,450.2 L142.9,444.2 L145.2,453.6 L147.4,418.8 L149.6,404.1 L151.9,404.1 L154.1,404.1 L156.4,404.1 L158.6,404.1 L160.8,404.1 L163.1,404.1 L165.3,404.1 L167.6,404.1 L169.8,404.1 L172.0,404.1 L174.3,404.1 L176.5,404.1 L178.7,404.1 L181.0,404.1 L183.2,404.1 L185.5,404.1 L187.7,404.1 L189.9,404.1 L192.2,404.1 L194.4,404.1 L196.7,404.1 L198.9,404.1 L201.1,404.1 L203.4,404.1 L205.6,404.1 L207.9,404.1 L210.1,404.1 L212.3,404.1 L214.6,404.1 L216.8,404.1 L219.0,404.1 L221.3,404.1 L223.5,404.1 L225.8,404.1 L228.0,404.1 L230.2,404.1 L232.5,404.1 L234.7,404.1 L237.0,404.1 L239.2,404.1 L241.4,404.1 L243.7,404.1 L245.9,404.1 L248.1,404.1 L250.4,404.1 L252.6,404.1 L254.9,404.1 L257.1,404.1 L259.3,404.1 L261.6,404.1 L263.8,404.1 L266.1,404.1 L268.3,404.1 L270.5,404.1 L272.8,404.1 L275.0,404.1 L277.3,404.1 L279.5,404.1 L281.7,404.1 L284.0,404.1 L286.2,404.1 L288.4,404.1 L290.7,404.1 L292.9,404.1 L295.2,404.1 L297.4,404.1 L299.6,404.1 L301.9,404.1 L304.1,404.1 L306.4,404.1 L308.6,404.1 L310.8,404.1 L313.1,404.1 L315.3,404.1 L317.6,404.1 L319.8,404.1 L322.0,404.1 L324.3,404.1 L326.5,404.1 L328.7,404.1 L331.0,404.1 L333.2,404.1 L335.5,404.1 L337.7,404.1 L339.9,404.1 L342.2,404.1 L344.4,404.1 L346.7,404.1 L348.9,404.1 L351.1,404.1 L353.4,404.1 L355.6,404.1 L357.9,404.1 L360.1,404.1 L362.3,404.1 L364.6,404.1 L366.8,404.1 L369.0,404.1 L371.3,404.1 L373.5,404.1 L375.8,404.1 L378.0,404.1 L380.2,404.1 L382.5,404.1 L384.7,404.1 L387.0,404.1 L389.2,404.1 L391.4,404.1 L393.7,404.1 L395.9,404.1 L398.1,404.1 L400.4,404.1 L402.6,404.1 L404.9,404.1 L407.1,404.1 L409.3,404.1 L411.6,404.1 L413.8,404.1 L416.1,404.1 L418.3,404.1 L420.5,404.1 L422.8,404.1 L425.0,404.1 L427.3,404.1 L429.5,404.1 L431.7,404.1 L434.0,404.1 L436.2,404.1 L438.4,404.1 L440.7,404.1 L442.9,404.1 L445.2,404.1 L447.4,404.1 L449.6,404.1 L451.9,404.1 L454.1,404.1 L456.4,404.1 L458.6,404.1 L460.8,404.1 L463.1,404.1 L465.3,404.1 L467.6,404.1 L469.8,404.1 L472.0,404.1 L474.3,404.1 L476.5,404.1 L478.7,404.1 L481.0,404.1 L483.2,404.1 L485.5,404.1 L487.7,421.0 L489.9,421.0 L492.2,421.4 L494.4,423.4 L496.7,407.2 L498.9,388.0 L501.1,388.0 L503.4,388.0 L505.6,388.0 L507.9,388.0 L510.1,388.0 L512.3,388.0 L514.6,388.0 L516.8,388.0 L519.0,388.0 L521.3,388.0 L523.5,388.0 L525.8,388.0 L528.0,388.0 L530.2,388.0 L532.5,388.0 L534.7,388.0 L537.0,388.0 L539.2,388.0 L541.4,388.0 L543.7,388.0 L545.9,388.0 L548.1,388.0 L550.4,388.0 L552.6,388.0 L554.9,388.0 L557.1,388.0 L559.3,388.0 L561.6,388.0 L563.8,388.0 L566.1,388.0 L568.3,406.3 L570.5,396.8 L572.8,395.5 L575.0,398.8 L577.3,392.4 L579.5,395.2 L581.7,384.8 L584.0,378.6 L586.2,371.0 L588.4,371.0 L590.7,371.0 L592.9,371.0 L595.2,371.0 L597.4,371.0 L599.6,371.0 L601.9,371.0 L604.1,371.0 L606.4,371.0 L608.6,399.0 L610.8,317.2 L613.1,343.3 L615.3,343.3 L617.6,330.3 L619.8,330.3 L622.0,330.3 L624.3,321.9 L626.5,333.8 L628.7,333.8 L631.0,319.2 L633.2,319.2 L635.5,319.2 L637.7,319.2 L639.9,319.2 L642.2,319.2 L644.4,319.2 L646.7,319.2 L648.9,319.2 L651.1,319.2 L653.4,319.2 L655.6,319.2 L657.9,319.2 L660.1,319.2 L662.3,319.2 L664.6,319.2 L666.8,319.2 L669.0,319.2 L671.3,319.2 L673.5,319.2 L675.8,319.2 L678.0,319.2 L680.2,319.2 L682.5,319.2 L684.7,319.2 L687.0,319.2 L689.2,319.2 L691.4,319.2 L693.7,319.2 L695.9,319.2 L698.1,319.2 L700.4,319.2 L702.6,319.2 L704.9,319.2 L707.1,319.2 L709.3,319.2 L711.6,319.2 L713.8,319.2 L716.1,319.2 L718.3,319.2 L720.5,319.2 L722.8,319.2 L725.0,319.2 L727.3,319.2 L729.5,319.2 L731.7,319.2 L734.0,319.2 L736.2,319.2 L738.4,319.2 L740.7,319.2 L742.9,319.2 L745.2,319.2 L747.4,319.2 L749.6,319.2 L751.9,319.2 L754.1,319.2 L756.4,319.2 L758.6,319.2 L760.8,319.2 L763.1,319.2 L765.3,319.2 L767.6,319.2 L769.8,319.2 L772.0,319.2 L774.3,319.2 L776.5,319.2 L778.7,319.2 L781.0,319.2 L783.2,319.2 L785.5,319.2 L787.7,319.2 L789.9,319.2 L792.2,319.2 L794.4,319.2 L796.7,319.2 L798.9,319.2 L801.1,319.2 L803.4,319.2 L805.6,319.2 L807.9,319.2 L810.1,319.2 L812.3,319.2 L814.6,319.2 L816.8,319.2 L819.0,319.2 L821.3,319.2 L823.5,319.2 L825.8,319.2 L828.0,319.2 L830.2,319.2 L832.5,319.2 L834.7,319.2 L837.0,319.2 L839.2,319.2 L841.4,319.2 L843.7,319.2 L845.9,319.2 L848.1,319.2 L850.4,319.2 L852.6,319.2 L854.9,319.2 L857.1,319.2 L859.3,319.2 L861.6,319.2 L863.8,319.2 L866.1,319.2 L868.3,319.2 L870.5,319.2 L872.8,319.2 L875.0,319.2 L877.3,319.2 L879.5,319.2 L881.7,319.2 L884.0,319.2 L886.2,319.2 L888.4,319.2 L890.7,319.2 L892.9,319.2 L895.2,319.2 L897.4,319.2 L899.6,319.2 L901.9,319.2 L904.1,319.2 L906.4,319.2 L908.6,319.2 L910.8,319.2 L913.1,319.2 L915.3,319.2 L917.6,319.2 L919.8,319.2 L922.0,319.2 L924.3,319.2 L926.5,319.2 L928.7,319.2 L931.0,319.2 L933.2,319.2 L935.5,319.2 L937.7,319.2 L939.9,319.2 L942.2,319.2 L944.4,319.2 L946.7,319.2 L948.9,319.2 L951.1,319.2 L953.4,319.2 L955.6,319.2 L957.9,319.2 L960.1,319.2 L962.3,319.2 L964.6,319.2 L966.8,319.2 L969.0,319.2 L971.3,319.2 L973.5,319.2 L975.8,319.2 L978.0,319.2 L980.2,319.2 L982.5,319.2 L984.7,319.2 L987.0,319.2 L989.2,319.2 L991.4,319.2 L993.7,319.2 L995.9,319.2 L998.1,319.2 L1000.4,319.2 L1002.6,319.2 L1004.9,319.2 L1007.1,319.2 L1009.3,319.2 L1011.6,319.2 L1013.8,319.2 L1016.1,319.2 L1018.3,319.2 L1020.5,319.2 L1022.8,319.2 L1025.0,319.2 L1027.3,319.2 L1029.5,319.2 L1031.7,319.2 L1034.0,319.2 L1036.2,319.2 L1038.4,319.2 L1040.7,319.2 L1042.9,319.2 L1045.2,319.2 L1047.4,319.2 L1049.6,319.2 L1051.9,319.2 L1054.1,320.0 L1056.4,301.8 L1058.6,294.7 L1060.8,294.7 L1063.1,294.7 L1065.3,294.7 L1067.6,294.7 L1069.8,294.7 L1072.0,294.7 L1074.3,294.7 L1076.5,294.7 L1078.7,294.7 L1081.0,294.7 L1083.2,294.7 L1085.5,294.7 L1087.7,294.7 L1089.9,294.7 L1092.2,294.7 L1094.4,294.7 L1096.7,294.7 L1098.9,294.7 L1101.1,294.7 L1103.4,294.7 L1105.6,294.7 L1107.9,294.7 L1110.1,294.7 L1112.3,294.7 L1114.6,294.7 L1116.8,294.7 L1119.0,294.7 L1121.3,294.7 L1123.5,294.7 L1125.8,294.7 L1128.0,294.7 L1130.2,294.7 L1132.5,294.7 L1134.7,294.7 L1137.0,294.7 L1139.2,294.7 L1141.4,294.7 L1143.7,294.7 L1145.9,294.7 L1148.1,294.7 L1150.4,294.7 L1152.6,294.7 L1154.9,294.7 L1157.1,294.7 L1159.3,294.7 L1161.6,294.7 L1163.8,294.7 L1166.1,294.7 L1168.3,294.7 L1170.5,294.7 L1172.8,294.7 L1175.0,294.7 L1177.3,294.7 L1179.5,294.7 L1181.7,294.7 L1184.0,294.7 L1186.2,294.7 L1188.4,294.7 L1190.7,294.7 L1192.9,294.7 L1195.2,294.7 L1197.4,294.7 L1199.6,294.7 L1201.9,294.7 L1204.1,294.7 L1206.4,294.7 L1208.6,294.7 L1210.8,294.7 L1213.1,294.7 L1215.3,294.7 L1217.6,294.7 L1219.8,294.7 L1222.0,294.7 L1224.3,294.7 L1226.5,294.7 L1228.7,294.7 L1231.0,294.7 L1233.2,294.7 L1235.5,294.7 L1237.7,294.7 L1239.9,294.7 L1242.2,294.7 L1244.4,294.7 L1246.7,294.7 L1248.9,294.7 L1251.1,294.7 L1253.4,294.7 L1255.6,294.7 L1257.9,294.7 L1260.1,294.7 L1262.3,294.7 L1264.6,294.7 L1266.8,294.7 L1269.0,294.7 L1271.3,294.7 L1273.5,294.7 L1275.8,294.7 L1278.0,294.7" fill="none" stroke="#00d4ff" stroke-width="2.4"/>
  <g font-family="Inter, Segoe UI, Arial" font-size="14" fill="#d8e7f7">
    <circle cx="88" cy="126" r="5" fill="#eaf2ff"/><text x="102" y="131">Buy and hold proxy</text>
    <circle cx="270" cy="126" r="5" fill="#00d4ff"/><text x="284" y="131">Ensemble long-flat proxy</text>
  </g>
  <text x="78" y="578" fill="#8da6bd" font-family="Inter, Segoe UI, Arial" font-size="13">2024-04-25</text>
  <text x="1278" y="578" text-anchor="end" fill="#8da6bd" font-family="Inter, Segoe UI, Arial" font-size="13">2026-06-16</text>
  <text x="1256" y="582" text-anchor="end" fill="#6e879f" font-family="Inter, Segoe UI, Arial" font-size="13">Uses next-day execution via previous signal</text>
</svg>